#!OML:ASF I:\Actors\actors\Patient Classification 2\Patient 1\Session 1\actor1.ASF
:FULLY-SPECIFIED
:DEGREES
337
root -0.526806 18.7121 5.84135 3.12983 -3.22821 -1.58007
lowerback 2.11176 1.95341 -1.46077
upperback -2.57441 2.57411 0.627537
thorax -3.9279 1.33364 1.32102
lowerneck -16.0396 -2.11467 -1.83952
upperneck 33.8098 -3.1839 1.75645
head 14.3431 -1.36092 0.503008
rclavicle 2.01409e-014 -7.25564e-015
rhumerus -3.47893 35.899 -46.5286
rradius 89.3423
rwrist 28.0273
rhand -30.2216 -30.9027
rfingers 7.12502
rthumb -3.53147 -60.8532
lclavicle 2.01409e-014 -7.25564e-015
lhumerus -46.8297 -27.6448 102.744
lradius 108.996
lwrist 29.3931
lhand -14.8824 -32.5003
lfingers 7.12502
lthumb 11.2782 -2.82346
rfemur 0 0 0
rtibia 0
rfoot 0 0
rtoes 0
lfemur -4.83584 -8.28893 -13.5324
ltibia 21.557
lfoot -25.03 16.6579
ltoes -53.3217
338
root -0.529701 18.7109 5.84353 3.10818 -3.18785 -1.61162
lowerback 2.08973 1.96227 -1.46183
upperback -2.54036 2.58647 0.635682
thorax -3.88099 1.33944 1.33081
lowerneck -16.0879 -2.1329 -1.88007
upperneck 33.7937 -3.2006 1.7691
head 14.3483 -1.37107 0.51192
rclavicle 7.59575e-015 1.37161e-014
rhumerus -4.43813 37.7432 -47.3387
rradius 90.691
rwrist 27.8115
rhand -30.33 -30.7815
rfingers 7.12502
rthumb -3.63614 -60.7302
lclavicle 7.59575e-015 1.37161e-014
lhumerus -46.7353 -27.7529 102.789
lradius 108.976
lwrist 29.3479
lhand -14.8991 -32.5101
lfingers 7.12502
lthumb 11.2621 -2.83241
rfemur 0 0 0
rtibia 0
rfoot 0 0
rtoes 0
lfemur -4.83406 -8.30139 -13.4885
ltibia 21.6073
lfoot -25.0513 16.6349
ltoes -53.3378
339
root -0.532729 18.7098 5.84583 3.11084 -3.12953 -1.60364
lowerback 2.0634 1.96186 -1.53366
upperback -2.52632 2.5842 0.655271
thorax -3.85574 1.34043 1.39247
lowerneck -16.1442 -2.12842 -1.94773
upperneck 33.7774 -3.16543 1.75811
head 14.3539 -1.3656 0.524661
rclavicle 9.31958e-015 -1.40143e-014
rhumerus -5.54365 39.5144 -48.2639
rradius 92.0407
rwrist 27.5382
rhand -30.2425 -30.8977
rfingers 7.12502
rthumb -3.55165 -60.8478
lclavicle 9.31958e-015 -1.40143e-014
lhumerus -46.5992 -27.8267 102.856
lradius 108.928
lwrist 29.3623
lhand -14.8765 -32.3348
lfingers 7.12502
lthumb 11.2838 -2.65835
rfemur 0 0 0
rtibia 0
rfoot 0 0
rtoes 0
lfemur -4.86975 -8.28916 -13.4809
ltibia 21.6491
lfoot -24.9969 16.6397
ltoes -53.5253
340
root -0.535392 18.7102 5.8472 3.13439 -3.09023 -1.60853
lowerback 2.02428 1.96999 -1.56953
upperback -2.51627 2.59461 0.666117
thorax -3.82579 1.34656 1.42471
lowerneck -16.1951 -2.11321 -1.99322
upperneck 33.7679 -3.12586 1.75893
head 14.3611 -1.35368 0.539184
rclavicle 1.66622e-014 1.65985e-014
rhumerus -5.33946 41.8838 -48.0329
rradius 93.2299
rwrist 26.3835
rhand -30.3472 -31.4893
rfingers 7.12502
rthumb -3.65272 -61.4377
lclavicle 1.66622e-014 1.65985e-014
lhumerus -46.4221 -27.9146 102.894
lradius 108.861
lwrist 29.4112
lhand -14.8139 -32.0589
lfingers 7.12502
lthumb 11.3442 -2.38573
rfemur 0 0 0
rtibia 0
rfoot 0 0
rtoes 0
lfemur -4.90485 -8.34809 -13.4689
ltibia 21.6558
lfoot -24.9493 16.7386
ltoes -53.7479
341
root -0.537448 18.7114 5.84853 3.14659 -3.04629 -1.63618
lowerback 1.9821 1.97263 -1.5578
upperback -2.4873 2.59953 0.676715
thorax -3.77203 1.3483 1.43095
lowerneck -16.2377 -2.09265 -2.06138
upperneck 33.756 -3.09895 1.83696
head 14.3677 -1.33942 0.587105
rclavicle 2.59507e-015 1.43125e-014
rhumerus -5.92111 43.5463 -48.6327
rradius 94.3811
rwrist 25.893
rhand -30.5269 -31.6316
rfingers 7.12502
rthumb -3.8263 -61.577
lclavicle 2.59507e-015 1.43125e-014
lhumerus -46.2391 -28.0108 102.895
lradius 108.791
lwrist 29.4761
lhand -14.7518 -31.8515
lfingers 7.12502
lthumb 11.4041 -2.18159
rfemur 0 0 0
rtibia 0
rfoot 0 0
rtoes 0
lfemur -4.9102 -8.49279 -13.4372
ltibia 21.6526
lfoot -25.0343 16.7533
ltoes -53.5728
342
root -0.538663 18.7115 5.85014 3.14643 -2.97899 -1.62483
lowerback 1.94921 1.95664 -1.598
upperback -2.45962 2.57756 0.688904
thorax -3.72633 1.33816 1.46895
lowerneck -16.2434 -2.04902 -2.04621
upperneck 33.7003 -3.02678 1.81035
head 14.3409 -1.31015 0.585706
rclavicle -1.22454e-014 -3.97569e-015
rhumerus -6.99397 44.8626 -49.7703
rradius 95.5095
rwrist 25.6846
rhand -30.3796 -32.0873
rfingers 7.12502
rthumb -3.68407 -62.0352
lclavicle -1.22454e-014 -3.97569e-015
lhumerus -46.1242 -28.0744 102.901
lradius 108.734
lwrist 29.5607
lhand -14.7327 -31.7494
lfingers 7.12502
lthumb 11.4225 -2.08053
rfemur 0 0 0
rtibia 0
rfoot 0 0
rtoes 0
lfemur -4.91341 -8.61387 -13.448
ltibia 21.6545
lfoot -25.1076 16.7201
ltoes -53.3274
343
root -0.539257 18.7115 5.85077 3.15374 -2.91671 -1.57831
lowerback 1.93894 1.94549 -1.67503
upperback -2.46267 2.55994 0.687382
thorax -3.7265 1.33151 1.51169
lowerneck -16.2345 -2.01505 -1.97531
upperneck 33.709 -2.97197 1.73514
head 14.3383 -1.28777 0.55215
rclavicle 1.14348e-014 -8.94531e-015
rhumerus -8.13855 46.0724 -51.0086
rradius 96.5537
rwrist 25.4637
rhand -30.0463 -32.2834
rfingers 7.12502
rthumb -3.36218 -62.2367
lclavicle 1.14348e-014 -8.94531e-015
lhumerus -46.0704 -28.149 102.936
lradius 108.679
lwrist 29.6498
lhand -14.7544 -31.6829
lfingers 7.12502
lthumb 11.4016 -2.01292
rfemur 0 0 0
rtibia 0
rfoot 0 0
rtoes 0
lfemur -4.94276 -8.64473 -13.4928
ltibia 21.6657
lfoot -25.0659 16.7196
ltoes -53.3409
344
root -0.539946 18.7121 5.85036 3.16649 -2.84646 -1.57388
lowerback 1.9466 1.93614 -1.69487
upperback -2.47191 2.54679 0.692671
thorax -3.74103 1.32578 1.52848
lowerneck -16.2322 -2.00199 -1.95758
upperneck 33.7711 -2.95297 1.71754
head 14.3648 -1.27929 0.545357
rclavicle 1.05698e-014 -9.0447e-015
rhumerus -9.29788 47.1659 -52.2933
rradius 97.4867
rwrist 25.4061
rhand -30.0335 -32.2099
rfingers 7.12502
rthumb -3.34984 -62.1634
lclavicle 1.05698e-014 -9.0447e-015
lhumerus -45.9943 -28.2504 102.972
lradius 108.601
lwrist 29.7524
lhand -14.7581 -31.621
lfingers 7.12502
lthumb 11.398 -1.95076
rfemur 0 0 0
rtibia 0
rfoot 0 0
rtoes 0
lfemur -4.979 -8.61583 -13.4786
ltibia 21.6747
lfoot -25.0114 16.6517
ltoes -53.3832
345
root -0.540443 18.7115 5.85017 3.16985 -2.77245 -1.60728
lowerback 1.93883 1.9259 -1.67159
upperback -2.4491 2.53494 0.717101
thorax -3.71258 1.31922 1.54202
lowerneck -16.2458 -1.99912 -1.97654
upperneck 33.7734 -2.93538 1.70027
head 14.3685 -1.27626 0.544546
rclavicle -8.72789e-016 -6.36111e-015
rhumerus -10.4433 48.1646 -53.6015
rradius 98.4539
rwrist 25.1794
rhand -30.0923 -32.7819
rfingers 7.12502
rthumb -3.40656 -62.7344
lclavicle -8.72789e-016 -6.36111e-015
lhumerus -45.8552 -28.3427 102.993
lradius 108.53
lwrist 29.8544
lhand -14.7197 -31.5473
lfingers 7.12502
lthumb 11.435 -1.87916
rfemur 0 0 0
rtibia 0
rfoot 0 0
rtoes 0
lfemur -5.0042 -8.56698 -13.4239
ltibia 21.6827
lfoot -24.951 16.5618
ltoes -53.462
346
root -0.540242 18.7105 5.8507 3.16374 -2.73092 -1.63035
lowerback 1.92225 1.92506 -1.6538
upperback -2.42107 2.53541 0.737535
thorax -3.67433 1.31879 1.55425
lowerneck -16.2441 -2.00906 -2.03195
upperneck 33.7674 -2.94378 1.73448
head 14.3674 -1.28212 0.566793
rclavicle -1.63097e-014 1.27222e-014
rhumerus -11.6122 49.0746 -54.9225
rradius 99.4824
rwrist 24.6388
rhand -29.9365 -33.5851
rfingers 7.12502
rthumb -3.25617 -63.54
lclavicle -1.63097e-014 1.27222e-014
lhumerus -45.7366 -28.4374 103.012
lradius 108.48
lwrist 29.8788
lhand -14.6898 -31.4841
lfingers 7.12502
lthumb 11.4639 -1.81751
rfemur 0 0 0
rtibia 0
rfoot 0 0
rtoes 0
lfemur -5.00976 -8.57352 -13.3954
ltibia 21.6908
lfoot -24.9416 16.5343
ltoes -53.5173
347
root -0.539714 18.71 5.85144 3.17652 -2.70973 -1.63674
lowerback 1.89808 1.92259 -1.64185
upperback -2.41846 2.53293 0.738874
thorax -3.65737 1.31712 1.55
lowerneck -16.1978 -2.01807 -2.03683
upperneck 33.7756 -2.95184 1.72166
head 14.3607 -1.2883 0.561517
rclavicle -7.40783e-016 -6.16232e-015
rhumerus -12.7851 49.8741 -56.2745
rradius 100.378
rwrist 24.1349
rhand -29.7922 -33.6566
rfingers 7.12502
rthumb -3.11674 -63.6136
lclavicle -7.40783e-016 -6.16232e-015
lhumerus -45.6603 -28.5341 103.024
lradius 108.4
lwrist 29.8384
lhand -14.6435 -31.4266
lfingers 7.12502
lthumb 11.5085 -1.76254
rfemur 0 0 0
rtibia 0
rfoot 0 0
rtoes 0
lfemur -5.02607 -8.62463 -13.3903
ltibia 21.6941
lfoot -24.9861 16.5517
ltoes -53.5204
348
root -0.539163 18.7095 5.8518 3.19757 -2.68391 -1.63769
lowerback 1.87729 1.915 -1.6304
upperback -2.42236 2.52332 0.733587
thorax -3.64847 1.31192 1.53934
lowerneck -16.1089 -2.01386 -1.91712
upperneck 33.7522 -2.95728 1.64242
head 14.3261 -1.28705 0.508187
rclavicle -7.46996e-015 -9.83984e-015
rhumerus -13.9025 50.5384 -57.6429
rradius 101.12
rwrist 23.7336
rhand -29.5547 -33.6317
rfingers 7.12502
rthumb -2.88737 -63.5919
lclavicle -7.46996e-015 -9.83984e-015
lhumerus -45.5392 -28.6409 103.025
lradius 108.302
lwrist 29.8492
lhand -14.5723 -31.3834
lfingers 7.12502
lthumb 11.5772 -1.72314
rfemur 0 0 0
rtibia 0
rfoot 0 0
rtoes 0
lfemur -5.06058 -8.59723 -13.3837
ltibia 21.697
lfoot -24.9688 16.5294
ltoes -53.5486
349
root -0.538552 18.71 5.85246 3.20231 -2.66083 -1.64476
lowerback 1.86042 1.90236 -1.62232
upperback -2.41701 2.50718 0.740001
thorax -3.63266 1.30361 1.54298
lowerneck -15.9721 -1.99005 -1.72847
upperneck 33.7008 -2.95518 1.56098
head 14.2664 -1.27449 0.443722
rclavicle 2.43247e-014 -2.18663e-015
rhumerus -14.8778 50.9615 -58.911
rradius 101.758
rwrist 23.6324
rhand -29.1143 -33.3791
rfingers 7.12502
rthumb -2.46208 -63.3446
lclavicle 2.43247e-014 -2.18663e-015
lhumerus -45.4181 -28.7466 103.011
lradius 108.242
lwrist 29.9443
lhand -14.5084 -31.3669
lfingers 7.12502
lthumb 11.6388 -1.71011
rfemur 0 0 0
rtibia 0
rfoot 0 0
rtoes 0
lfemur -5.07613 -8.53243 -13.3664
ltibia 21.7037
lfoot -24.958 16.4446
ltoes -53.521
350
root -0.538148 18.7108 5.8534 3.20756 -2.64682 -1.66267
lowerback 1.82459 1.87831 -1.63027
upperback -2.4125 2.47603 0.763431
thorax -3.60789 1.28846 1.57454
lowerneck -15.8912 -1.97147 -1.67134
upperneck 33.7095 -2.93721 1.53143
head 14.2499 -1.2642 0.425547
rclavicle -3.95302e-014 9.24349e-015
rhumerus -15.8908 51.3529 -60.2213
rradius 102.4
rwrist 23.4381
rhand -28.7422 -33.2398
rfingers 7.12502
rthumb -2.10272 -63.2092
lclavicle -3.95302e-014 9.24349e-015
lhumerus -45.3877 -28.7777 103.006
lradius 108.252
lwrist 30.0338
lhand -14.4498 -31.3619
lfingers 7.12502
lthumb 11.6954 -1.70837
rfemur 0 0 0
rtibia 0
rfoot 0 0
rtoes 0
lfemur -5.08455 -8.52296 -13.3416
ltibia 21.7109
lfoot -24.9595 16.4101
ltoes -53.5185
351
root -0.537967 18.7108 5.85233 3.21957 -2.63955 -1.69273
lowerback 1.82359 1.84977 -1.61866
upperback -2.42689 2.43872 0.775599
thorax -3.62071 1.26996 1.58229
lowerneck -15.8868 -1.95932 -1.73222
upperneck 33.7819 -2.92263 1.58952
head 14.2837 -1.25756 0.462334
rclavicle -6.84875e-016 -8.84592e-015
rhumerus -17.1442 51.9803 -61.7862
rradius 103.166
rwrist 22.4201
rhand -28.6442 -34.6335
rfingers 7.12502
rthumb -2.00811 -64.6038
lclavicle -6.84875e-016 -8.84592e-015
lhumerus -45.363 -28.7793 102.993
lradius 108.259
lwrist 30.0396
lhand -14.4157 -31.3172
lfingers 7.12502
lthumb 11.7282 -1.66553
rfemur 0 0 0
rtibia 0
rfoot 0 0
rtoes 0
lfemur -5.11451 -8.51741 -13.3026
ltibia 21.7186
lfoot -24.9142 16.4295
ltoes -53.548
352
root -0.537054 18.711 5.85076 3.23219 -2.64534 -1.69045
lowerback 1.83086 1.82551 -1.60222
upperback -2.4382 2.40613 0.755872
thorax -3.63358 1.25315 1.55405
lowerneck -15.9076 -1.93652 -1.79784
upperneck 33.8363 -2.89555 1.664
head 14.3152 -1.24379 0.508522
rclavicle 1.81282e-014 4.77083e-015
rhumerus -18.3128 52.4826 -63.3283
rradius 103.852
rwrist 21.2922
rhand -28.5545 -36.0134
rfingers 7.12502
rthumb -1.92143 -65.9844
lclavicle 1.81282e-014 4.77083e-015
lhumerus -45.2762 -28.8276 102.935
lradius 108.228
lwrist 29.9829
lhand -14.4696 -31.2643
lfingers 7.12502
lthumb 11.6762 -1.6097
rfemur 0 0 0
rtibia 0
rfoot 0 0
rtoes 0
lfemur -5.14139 -8.50282 -13.3049
ltibia 21.7205
lfoot -24.883 16.4546
ltoes -53.5853
